<mxfile host="drawio-plugin" modified="2023-06-08T00:50:52.341Z" agent="5.0 (Windows NT 6.2; Win64; x64) AppleWebKit/537.36 (KHTML, like Gecko) Chrome/98.0.4758.102 Safari/537.36" version="20.5.3" etag="J_9Ur8S7jiAKsVkJKoqS" type="embed"><diagram id="zQ-kfCYi7yAxErZMXLnI" name="Page-1"><mxGraphModel dx="949" dy="533" grid="1" gridSize="10" guides="1" tooltips="1" connect="1" arrows="1" fold="1" page="1" pageScale="1" pageWidth="850" pageHeight="1100" math="0" shadow="0"><root><mxCell id="0"/><mxCell id="1" parent="0"/></root></mxGraphModel></diagram></mxfile>